<svg width="204" height="204" viewBox="0 0 204 204" fill="none" xmlns="http://www.w3.org/2000/svg">
<path d="M103.67 30.1133V31.125L100.123 31.125L100.123 30.1133L103.67 30.1133Z" fill="black"/>
<path d="M122.969 31.1685C122.956 30.9201 122.912 30.6891 122.836 30.4753C122.763 30.2597 122.659 30.0656 122.524 29.8928C122.39 29.7176 122.223 29.5676 122.025 29.4427C121.828 29.3186 121.602 29.2228 121.345 29.1554C120.909 29.0412 120.487 29.0502 120.078 29.1826C119.669 29.315 119.305 29.571 118.988 29.9508C118.673 30.3287 118.434 30.83 118.27 31.4547C118.106 32.0819 118.069 32.6389 118.159 33.1257C118.25 33.6125 118.443 34.0145 118.739 34.3319C119.036 34.6492 119.411 34.8673 119.864 34.9862C120.285 35.0965 120.674 35.107 121.031 35.0176C121.391 34.9289 121.697 34.7508 121.951 34.4834C122.207 34.2141 122.391 33.8666 122.503 33.4409L122.79 33.5768L120.576 32.9962L120.828 32.0327L123.87 32.8303L123.639 33.7107C123.469 34.3606 123.182 34.8885 122.78 35.2944C122.38 35.6985 121.904 35.9666 121.349 36.0985C120.798 36.2312 120.209 36.2156 119.585 36.0517C118.884 35.8681 118.312 35.5457 117.868 35.0846C117.426 34.6241 117.135 34.0592 116.996 33.39C116.857 32.7182 116.894 31.9742 117.108 31.1581C117.27 30.5409 117.501 30.0092 117.801 29.5629C118.101 29.1166 118.451 28.7628 118.851 28.5015C119.254 28.2383 119.689 28.0712 120.158 28.0001C120.629 27.9272 121.115 27.9565 121.617 28.0879C122.035 28.1976 122.408 28.3613 122.736 28.5792C123.066 28.7978 123.342 29.0574 123.565 29.3581C123.79 29.6595 123.955 29.9908 124.06 30.352C124.165 30.7107 124.201 31.0876 124.167 31.4826L122.969 31.1685Z" fill="black"/>
<path d="M124.926 37.5896L127.928 30.1742L132.577 32.0564L132.187 33.0195L128.657 31.5903L127.742 33.8497L131.03 35.1807L130.642 36.1402L127.354 34.8092L126.435 37.0794L130.009 38.5262L129.619 39.4893L124.926 37.5896Z" fill="black"/>
<path d="M135.679 34.6646L136.189 33.7592L141.584 36.7975L141.074 37.7028L138.899 36.478L135.483 42.5432L134.435 41.9528L137.851 35.8876L135.679 34.6646Z" fill="black"/>
<path d="M154.775 47.2317L149.209 52.9785L148.342 52.1388L153.908 46.392L154.775 47.2317Z" fill="black"/>
<path d="M163.164 56.8826L156.91 61.8705L156.218 61.0032L158.27 54.1658L158.224 54.1078L153.636 57.7659L152.884 56.8222L159.138 51.8343L159.835 52.7077L157.78 59.553L157.826 59.6111L162.419 55.9481L163.164 56.8826Z" fill="black"/>
<path d="M168.627 68.0391L169.577 67.6185L172.083 73.28L171.133 73.7006L170.123 71.4181L163.757 74.2358L163.27 73.1356L169.636 70.318L168.627 68.0391Z" fill="black"/>
<path d="M171.502 84.5939C170.684 84.837 169.935 84.8961 169.257 84.7714C168.581 84.6459 168.008 84.3694 167.536 83.9417C167.067 83.5158 166.735 82.972 166.538 82.3105C166.341 81.6464 166.322 81.0068 166.482 80.3916C166.645 79.7783 166.977 79.2343 167.477 78.7599C167.977 78.2854 168.635 77.9271 169.452 77.6848C170.271 77.4417 171.018 77.383 171.694 77.5084C172.372 77.6331 172.945 77.9085 173.414 78.3344C173.886 78.762 174.22 79.3079 174.417 79.972C174.614 80.6336 174.63 81.2711 174.467 81.8844C174.308 82.4996 173.978 83.0444 173.477 83.5188C172.98 83.9925 172.321 84.3509 171.502 84.5939ZM171.162 83.448C171.786 83.2628 172.282 83.0057 172.649 82.6768C173.019 82.3496 173.262 81.9787 173.378 81.564C173.497 81.151 173.492 80.7248 173.361 80.2854C173.23 79.8435 173.002 79.4821 172.677 79.201C172.354 78.9192 171.948 78.7409 171.459 78.6661C170.972 78.5931 170.417 78.6492 169.793 78.8344C169.169 79.0197 168.672 79.2759 168.302 79.603C167.935 79.932 167.692 80.3029 167.573 80.7159C167.456 81.1281 167.463 81.5552 167.594 81.997C167.725 82.4364 167.951 82.797 168.274 83.0788C168.6 83.3624 169.006 83.5407 169.492 83.6137C169.981 83.6885 170.538 83.6333 171.162 83.448Z" fill="black"/>
<path d="M176.712 91.3794L176.906 92.5748L171.711 93.4145C171.159 93.5039 170.648 93.4533 170.179 93.2626C169.713 93.0715 169.32 92.7605 169 92.3295C168.682 91.8982 168.472 91.3663 168.37 90.7338C168.268 90.104 168.3 89.5343 168.465 89.0248C168.634 88.5149 168.909 88.0958 169.291 87.7675C169.676 87.4389 170.144 87.2299 170.697 87.1405L175.891 86.3008L176.084 87.4923L170.986 88.3165C170.629 88.3743 170.324 88.504 170.072 88.7057C169.82 88.91 169.638 89.1703 169.525 89.4865C169.415 89.8024 169.393 90.1596 169.457 90.558C169.522 90.9591 169.656 91.2922 169.86 91.5573C170.067 91.8246 170.322 92.0129 170.624 92.1223C170.927 92.2342 171.257 92.2613 171.615 92.2035L176.712 91.3794Z" fill="black"/>
<path d="M174.756 102.112L174.717 100.894C174.975 100.839 175.202 100.744 175.395 100.611C175.589 100.477 175.752 100.315 175.884 100.126C176.016 99.9366 176.114 99.7264 176.176 99.4951C176.239 99.2664 176.267 99.0245 176.259 98.7694C176.244 98.3087 176.115 97.8999 175.872 97.5429C175.628 97.1885 175.279 96.9131 174.825 96.7166C174.371 96.5228 173.821 96.4362 173.175 96.4569C172.525 96.4777 171.979 96.5995 171.538 96.8221C171.097 97.0472 170.768 97.3457 170.55 97.7174C170.333 98.0892 170.231 98.5028 170.246 98.9583C170.254 99.2108 170.296 99.4491 170.371 99.6734C170.448 99.9002 170.558 100.104 170.699 100.284C170.84 100.465 171.011 100.616 171.21 100.737C171.412 100.861 171.641 100.943 171.898 100.985L171.933 102.203C171.538 102.15 171.172 102.036 170.835 101.859C170.502 101.685 170.21 101.456 169.961 101.172C169.715 100.89 169.521 100.566 169.379 100.198C169.237 99.8296 169.159 99.4257 169.145 98.9858C169.123 98.2934 169.267 97.6713 169.577 97.1194C169.891 96.5674 170.349 96.1254 170.954 95.7934C171.558 95.4639 172.286 95.2856 173.137 95.2583C173.991 95.2309 174.728 95.3636 175.35 95.6563C175.974 95.9489 176.459 96.3607 176.804 96.8916C177.152 97.4224 177.337 98.0326 177.359 98.7224C177.373 99.1466 177.324 99.5442 177.214 99.9151C177.106 100.289 176.94 100.626 176.715 100.928C176.493 101.229 176.217 101.482 175.887 101.685C175.56 101.888 175.183 102.031 174.756 102.112Z" fill="black"/>
<path d="M169.232 104.755L177.195 105.523L177.079 106.725L173.618 106.391L173.235 110.361L176.696 110.695L176.58 111.9L168.617 111.132L168.733 109.927L172.205 110.262L172.588 106.292L169.116 105.957L169.232 104.755Z" fill="black"/>
<path d="M168.172 127.25L167.223 126.9L168.448 123.572L169.397 123.921L168.172 127.25Z" fill="black"/>
<path d="M158.149 138.113L164.711 142.69L164.02 143.68L158.311 139.698L156.237 142.671L155.385 142.076L158.149 138.113Z" fill="black"/>
<path d="M153.417 144.472L159.34 149.85L155.968 153.563L155.198 152.864L157.759 150.045L155.954 148.406L153.57 151.032L152.804 150.336L155.188 147.71L153.375 146.064L150.783 148.918L150.014 148.219L153.417 144.472Z" fill="black"/>
<path d="M152.45 155.574L153.123 156.365L148.409 160.378L147.735 159.587L149.636 157.969L145.124 152.669L146.04 151.889L150.552 157.189L152.45 155.574Z" fill="black"/>
<path d="M142.199 164.686L140.646 162.3L141.458 161.771L143.011 164.158L142.199 164.686Z" fill="black"/>
<path d="M132.158 167.737C132.356 168.052 132.635 168.236 132.996 168.288C133.357 168.342 133.744 168.27 134.157 168.071C134.453 167.928 134.686 167.758 134.857 167.561C135.029 167.365 135.135 167.158 135.177 166.938C135.217 166.722 135.189 166.512 135.09 166.308C135.008 166.137 134.897 166.008 134.757 165.922C134.615 165.837 134.458 165.784 134.286 165.763C134.113 165.745 133.936 165.745 133.757 165.762C133.578 165.782 133.41 165.808 133.252 165.84L132.46 165.996C132.203 166.051 131.931 166.088 131.643 166.108C131.355 166.128 131.07 166.109 130.787 166.052C130.505 165.994 130.245 165.879 130.006 165.708C129.765 165.538 129.567 165.291 129.411 164.967C129.214 164.559 129.145 164.146 129.204 163.727C129.26 163.31 129.444 162.914 129.755 162.539C130.063 162.165 130.499 161.842 131.062 161.571C131.601 161.311 132.11 161.172 132.586 161.153C133.063 161.135 133.488 161.229 133.863 161.436C134.238 161.645 134.542 161.962 134.775 162.384L133.684 162.91C133.537 162.659 133.348 162.483 133.117 162.381C132.884 162.282 132.631 162.246 132.358 162.273C132.084 162.304 131.807 162.387 131.528 162.521C131.221 162.669 130.971 162.849 130.778 163.061C130.583 163.275 130.459 163.503 130.404 163.743C130.35 163.986 130.38 164.225 130.493 164.459C130.596 164.673 130.741 164.818 130.929 164.895C131.114 164.974 131.331 165.008 131.58 164.998C131.828 164.989 132.097 164.956 132.387 164.9L133.351 164.722C134.004 164.601 134.573 164.612 135.057 164.754C135.54 164.898 135.902 165.22 136.144 165.722C136.344 166.138 136.406 166.554 136.33 166.973C136.253 167.391 136.064 167.778 135.762 168.135C135.461 168.494 135.069 168.79 134.585 169.022C134.097 169.257 133.625 169.379 133.17 169.387C132.712 169.397 132.303 169.303 131.942 169.107C131.583 168.913 131.305 168.625 131.11 168.242L132.158 167.737Z" fill="black"/>
<path d="M117.155 166.652L120.862 174.08L119.616 174.323L116.902 168.54L116.829 168.554L116.422 174.945L115.187 175.185L112.411 169.41L112.338 169.424L111.997 175.806L110.747 176.05L111.4 167.772L112.592 167.54L115.39 173.1L115.452 173.088L115.959 166.885L117.155 166.652Z" fill="black"/>
<path d="M102.369 172.474C102.314 171.622 102.423 170.879 102.696 170.246C102.968 169.615 103.366 169.117 103.888 168.752C104.407 168.39 105.011 168.187 105.7 168.143C106.391 168.098 107.019 168.222 107.583 168.515C108.145 168.81 108.601 169.255 108.953 169.848C109.304 170.441 109.507 171.163 109.561 172.013C109.616 172.865 109.507 173.607 109.234 174.237C108.962 174.871 108.566 175.368 108.046 175.731C107.524 176.095 106.918 176.3 106.226 176.345C105.538 176.389 104.913 176.263 104.351 175.968C103.787 175.675 103.329 175.232 102.978 174.639C102.627 174.048 102.424 173.327 102.369 172.474ZM103.562 172.398C103.604 173.047 103.744 173.588 103.983 174.019C104.22 174.452 104.527 174.772 104.906 174.977C105.282 175.185 105.698 175.275 106.156 175.245C106.616 175.216 107.019 175.074 107.365 174.819C107.712 174.567 107.976 174.211 108.158 173.751C108.337 173.293 108.406 172.739 108.364 172.089C108.323 171.44 108.184 170.898 107.947 170.464C107.708 170.034 107.4 169.714 107.024 169.506C106.648 169.3 106.23 169.212 105.77 169.242C105.313 169.271 104.911 169.412 104.565 169.664C104.216 169.918 103.951 170.275 103.772 170.732C103.59 171.193 103.52 171.748 103.562 172.398Z" fill="black"/>
<path d="M100.236 168.39L99.7238 176.374L96.8781 176.191C96.2596 176.151 95.7531 176.012 95.3588 175.772C94.9619 175.533 94.6742 175.218 94.4956 174.829C94.317 174.441 94.2434 174.002 94.2749 173.511C94.3063 173.022 94.4366 172.599 94.6657 172.24C94.8921 171.884 95.2172 171.617 95.641 171.438C96.0622 171.259 96.5821 171.189 97.2006 171.229L99.3563 171.367L99.2897 172.404L97.2432 172.273C96.8533 172.248 96.5327 172.283 96.2812 172.379C96.0272 172.475 95.8361 172.626 95.7081 172.832C95.5801 173.038 95.5065 173.29 95.4873 173.589C95.4679 173.89 95.5096 174.155 95.6124 174.384C95.7125 174.612 95.8823 174.792 96.1217 174.925C96.3583 175.06 96.6754 175.141 97.073 175.166L98.5856 175.263L99.0318 168.313L100.236 168.39ZM96.064 171.739L94.3227 168.01L95.6949 168.099L97.3972 171.825L96.064 171.739Z" fill="black"/>
<path d="M91.7346 167.645L90.2053 175.498L89.0205 175.267L89.7508 171.517L89.6549 171.498L85.6311 174.607L84.1396 174.316L87.9951 171.398L85.6573 166.462L87.0837 166.739L88.9387 170.742L90.0741 169.857L90.5498 167.414L91.7346 167.645Z" fill="black"/>
<path d="M69.37 164.416L69.809 163.504L73.0046 165.043L72.5656 165.955L69.37 164.416Z" fill="black"/>
<path d="M59.5725 153.442L60.5481 154.272L53.1702 158.498L52.1083 157.594L55.102 149.636L56.0776 150.466L53.5559 156.918L53.6035 156.958L59.5725 153.442ZM57.3781 155.688L54.2134 152.994L54.8717 152.22L58.0365 154.914L57.3781 155.688Z" fill="black"/>
<path d="M47.2724 152.96L50.5989 146.931L50.5385 146.865L44.2182 149.597L43.341 148.631L51.1987 145.384L52.1363 146.416L48.1495 153.926L47.2724 152.96Z" fill="black"/>
<path d="M47.6465 140.991L48.3795 142.041L40.1711 144.257L39.3732 143.113L44.2875 136.175L45.0206 137.226L40.945 142.827L40.9807 142.878L47.6465 140.991ZM44.9541 142.607L42.5763 139.198L43.4093 138.617L45.7871 142.026L44.9541 142.607Z" fill="black"/>
<path d="M34.7739 135.304L41.8667 131.603L42.425 132.673L35.3322 136.374L34.7739 135.304Z" fill="black"/>
<path d="M39.2439 125.855L31.7361 128.618L31.3193 127.485L37.8519 125.081L36.5999 121.679L37.5751 121.32L39.2439 125.855Z" fill="black"/>
<path d="M36.5916 117.708L36.8767 118.957L28.4367 117.931L28.1264 116.571L35.2852 111.984L35.5703 113.233L29.6908 116.895L29.7047 116.956L36.5916 117.708ZM33.4895 118.196L32.5647 114.144L33.5548 113.918L34.4797 117.97L33.4895 118.196Z" fill="black"/>
<path d="M35.0776 110.146L27.1146 110.914L26.8333 107.998C26.7788 107.433 26.8269 106.956 26.9778 106.568C27.1261 106.179 27.3495 105.878 27.648 105.663C27.9439 105.449 28.2888 105.323 28.6828 105.285C29.0146 105.253 29.3004 105.287 29.5403 105.386C29.7776 105.486 29.9748 105.632 30.1319 105.824C30.2862 106.013 30.4062 106.226 30.4919 106.464L30.5697 106.457C30.5571 106.191 30.6178 105.925 30.7517 105.658C30.8827 105.389 31.0841 105.158 31.3558 104.964C31.6275 104.77 31.9694 104.654 32.3816 104.614C32.7886 104.575 33.1633 104.635 33.5058 104.796C33.8455 104.954 34.1291 105.222 34.3566 105.601C34.5815 105.979 34.7237 106.477 34.7832 107.094L35.0776 110.146ZM33.9313 109.044L33.7641 107.31C33.7085 106.735 33.5573 106.333 33.3104 106.106C33.0635 105.878 32.7728 105.781 32.4384 105.813C32.187 105.837 31.9624 105.923 31.7647 106.07C31.567 106.218 31.4173 106.415 31.3156 106.663C31.2137 106.908 31.1783 107.192 31.2093 107.513L31.3807 109.29L33.9313 109.044ZM30.4436 109.381L30.2883 107.771C30.2623 107.501 30.1871 107.264 30.0627 107.059C29.938 106.851 29.7762 106.693 29.5773 106.584C29.3756 106.472 29.1464 106.429 28.8898 106.454C28.5606 106.485 28.2956 106.627 28.095 106.88C27.8943 107.132 27.817 107.496 27.863 107.973L28.0213 109.614L30.4436 109.381Z" fill="black"/>
<path d="M34.4837 100.526L26.4878 100.269L26.5265 99.063L33.4839 99.2861L33.6001 95.663L34.6386 95.6963L34.4837 100.526Z" fill="black"/>
<path d="M34.9791 92.6164L27.0817 91.3396L27.8822 86.3883L28.9079 86.5541L28.3001 90.3139L30.7063 90.7029L31.2724 87.2015L32.2943 87.3667L31.7282 90.8682L34.146 91.2591L34.7614 87.453L35.7871 87.6188L34.9791 92.6164Z" fill="black"/>
<path d="M39.323 75.8329L32.0077 72.5947L34.0158 68.0583L34.9659 68.4789L33.4464 71.9115L35.6753 72.8982L37.0509 69.7906L37.9975 70.2096L36.6219 73.3172L39.8116 74.7292L39.323 75.8329Z" fill="black"/>
<path d="M42.9751 60.4471C43.7056 60.8899 44.2526 61.4042 44.6161 61.99C44.9775 62.5745 45.1585 63.1852 45.1591 63.8221C45.1589 64.4554 44.98 65.0671 44.6222 65.6572C44.2631 66.2496 43.8022 66.6934 43.2395 66.9888C42.6759 67.2805 42.0503 67.4007 41.3627 67.3493C40.6752 67.298 39.9673 67.0516 39.2391 66.6101C38.5086 66.1673 37.9628 65.6537 37.6014 65.0692C37.2379 64.4834 37.0562 63.8738 37.0564 63.2405C37.0557 62.6037 37.2349 61.989 37.594 61.3967C37.9518 60.8065 38.4124 60.3656 38.9761 60.0738C39.5388 59.7785 40.1639 59.6565 40.8515 59.7079C41.5368 59.7579 42.2447 60.0043 42.9751 60.4471ZM42.3555 61.4693C41.7988 61.1318 41.2753 60.9378 40.7852 60.8873C40.2941 60.8333 39.8561 60.9027 39.4712 61.0957C39.0853 61.2851 38.7736 61.5758 38.536 61.9677C38.2971 62.3619 38.1829 62.7738 38.1934 63.2035C38.2017 63.6318 38.3427 64.0523 38.6164 64.4649C38.8892 64.8739 39.304 65.2471 39.8607 65.5846C40.4175 65.9221 40.9414 66.1179 41.4324 66.1719C41.9225 66.2224 42.3605 66.1529 42.7464 65.9635C43.13 65.7728 43.4413 65.4803 43.6802 65.0862C43.9178 64.6942 44.0325 64.2841 44.0241 63.8557C44.0149 63.4238 43.8739 63.0034 43.6011 62.5944C43.3274 62.1818 42.9122 61.8067 42.3555 61.4693Z" fill="black"/>
<path d="M47.5437 61.0356L41.2891 56.0477L43.067 53.8183C43.4534 53.3337 43.8576 52.9981 44.2794 52.8116C44.7029 52.6231 45.1256 52.5671 45.5475 52.6437C45.9673 52.7187 46.3696 52.9097 46.7544 53.2166C47.1372 53.5218 47.41 53.8709 47.5729 54.264C47.7354 54.6533 47.7688 55.073 47.6731 55.523C47.579 55.9709 47.3388 56.4371 46.9523 56.9217L45.6055 58.6106L44.7931 57.9628L46.0718 56.3594C46.3153 56.054 46.4696 55.7707 46.5347 55.5095C46.6014 55.2462 46.587 55.0033 46.4915 54.7805C46.396 54.5578 46.2311 54.3531 45.997 54.1664C45.7608 53.978 45.5197 53.8606 45.2735 53.8143C45.029 53.7658 44.7838 53.8018 44.538 53.9221C44.2917 54.0388 44.0443 54.2529 43.7959 54.5645L42.8509 55.7494L48.2963 60.0919L47.5437 61.0356ZM47.1841 55.6976L51.2384 56.4027L50.3811 57.4777L46.3511 56.7421L47.1841 55.6976Z" fill="black"/>
<path d="M59.6452 48.4108L53.0822 43.3266L54.0996 42.5673L59.0542 46.6001L59.1136 46.5557L56.7073 40.6211L57.7154 39.8688L62.7223 43.8673L62.7818 43.8229L60.32 37.9249L61.3405 37.1633L64.3441 44.904L63.3705 45.6306L58.4373 41.8353L58.3872 41.8727L60.6219 47.6819L59.6452 48.4108Z" fill="black"/>
<path d="M70.4409 36.7489C70.8601 37.4932 71.0843 38.2097 71.1136 38.8986C71.1416 39.5851 70.9997 40.2061 70.6877 40.7613C70.3768 41.313 69.9207 41.7582 69.3194 42.0968C68.7158 42.4368 68.0964 42.5973 67.4611 42.5785C66.8269 42.5561 66.2228 42.3539 65.6489 41.9717C65.0751 41.5896 64.5792 41.0275 64.1613 40.2855C63.7422 39.5413 63.5186 38.8259 63.4905 38.1393C63.4612 37.4504 63.6021 36.8302 63.913 36.2785C64.225 35.7232 64.6827 35.2756 65.2863 34.9357C65.8876 34.597 66.5054 34.4389 67.1396 34.4613C67.7749 34.4801 68.3794 34.6806 68.9533 35.0627C69.5259 35.4426 70.0218 36.0047 70.4409 36.7489ZM69.3994 37.3355C69.08 36.7682 68.7191 36.3423 68.3167 36.0578C67.9154 35.7698 67.4997 35.6154 67.0696 35.5946C66.6404 35.5703 66.2262 35.6706 65.8268 35.8955C65.4252 36.1217 65.1236 36.4246 64.9219 36.8042C64.719 37.1815 64.6355 37.617 64.6715 38.1108C64.7085 38.601 64.8867 39.1298 65.2062 39.6971C65.5257 40.2643 65.8861 40.692 66.2874 40.98C66.6897 41.2645 67.1055 41.4189 67.5346 41.4432C67.9624 41.4653 68.3772 41.3632 68.7788 41.137C69.1782 40.9121 69.4793 40.611 69.6823 40.2337C69.8862 39.8528 69.9697 39.4173 69.9327 38.9271C69.8967 38.4333 69.7189 37.9027 69.3994 37.3355Z" fill="black"/>
<path d="M74.1336 39.5038L71.1315 32.0885L73.7746 31.0184C74.3491 30.7858 74.8659 30.6917 75.325 30.7362C75.7866 30.7798 76.1823 30.9384 76.5123 31.2122C76.8413 31.4836 77.0982 31.8474 77.2829 32.3036C77.4666 32.7574 77.533 33.1955 77.482 33.6179C77.4325 34.0368 77.2557 34.4189 76.9515 34.764C76.6497 35.1081 76.2116 35.3965 75.6371 35.6291L73.6348 36.4397L73.2449 35.4766L75.1458 34.707C75.5079 34.5604 75.7813 34.3893 75.9662 34.1936C76.1535 33.997 76.2602 33.7782 76.2863 33.5373C76.3123 33.2963 76.2692 33.0371 76.1568 32.7595C76.0434 32.4795 75.8909 32.2589 75.6992 32.0977C75.5099 31.9355 75.2787 31.8465 75.0054 31.8307C74.7335 31.8115 74.4129 31.8767 74.0436 32.0262L72.6388 32.595L75.2524 39.0508L74.1336 39.5038ZM76.4397 34.6762L79.6263 37.28L78.3518 37.796L75.2014 35.1775L76.4397 34.6762Z" fill="black"/>
<path d="M82.1179 36.4858L80.0887 28.7474L81.2563 28.4413L82.2253 32.1366L82.3198 32.1119L84.5965 27.5654L86.0663 27.1799L83.8588 31.4821L88.1069 34.9153L86.7013 35.2839L83.2933 32.4825L82.6543 33.7727L83.2855 36.1796L82.1179 36.4858Z" fill="black"/>
</svg>
